<svg xmlns="http://www.w3.org/2000/svg" width="47" height="47" fill="none"><circle cx="23.5" cy="23.5" r="23.5" fill="#FFE6D2" opacity=".5"/><g clip-path="url(#a)"><path fill="#FFA155" d="M34.971 12.792a1.865 1.865 0 0 0-1.763-1.764c-1.924-.105-5.688-.003-9.287 1.86-1.835.948-3.776 2.557-5.325 4.414l-.056.069-3.515.271a1.856 1.856 0 0 0-1.414.832l-2.398 3.627a1.28 1.28 0 0 0-.103 1.229c.178.402.544.683.979.75l2.96.459-.03.172c-.098.59.097 1.196.523 1.622l4.125 4.125a1.87 1.87 0 0 0 1.621.522l.173-.03.459 2.961a1.28 1.28 0 0 0 1.27 1.09c.248 0 .494-.073.708-.215l3.627-2.398c.484-.32.788-.835.832-1.413l.272-3.515.069-.056c1.856-1.55 3.465-3.49 4.414-5.325 1.862-3.6 1.964-7.364 1.86-9.287ZM26.75 31.215l-3.47 2.294-.447-2.886c1.467-.43 2.917-1.121 4.3-2.046l-.178 2.29a.458.458 0 0 1-.205.348Zm-6.089-1.752-4.125-4.124a.456.456 0 0 1-.13-.396c.123-.733.313-1.431.55-2.089l6.188 6.189c-.79.283-1.497.452-2.087.55a.456.456 0 0 1-.396-.13Zm-5.528-10.419 2.29-.176c-.925 1.381-1.616 2.832-2.047 4.298l-2.885-.447 2.293-3.47a.458.458 0 0 1 .35-.204Zm12.664 7.28a16.122 16.122 0 0 1-3.255 2.128l-6.995-6.995a16.4 16.4 0 0 1 2.13-3.254c1.432-1.718 3.215-3.2 4.89-4.067 3.303-1.708 6.784-1.8 8.564-1.704.236.013.423.2.436.436.097 1.781.005 5.262-1.704 8.565-.866 1.675-2.348 3.457-4.066 4.89Z"/><path fill="#444CFC" d="M27.44 22.074c.9 0 1.8-.343 2.486-1.028a3.492 3.492 0 0 0 1.03-2.486c0-.939-.366-1.822-1.03-2.486a3.52 3.52 0 0 0-4.972 0 3.492 3.492 0 0 0-1.03 2.486c0 .939.366 1.822 1.03 2.486a3.504 3.504 0 0 0 2.486 1.028Zm-1.492-5.006a2.103 2.103 0 0 1 1.492-.616c.54 0 1.08.205 1.491.616.399.399.618.929.618 1.492s-.22 1.093-.618 1.492a2.112 2.112 0 0 1-3.6-1.492c0-.563.219-1.093.617-1.491Z"/><path fill="#FFA155" d="M11.717 30.778a.7.7 0 0 0 .497-.206l2.296-2.295a.703.703 0 1 0-.994-.995l-2.296 2.296a.703.703 0 0 0 .497 1.2ZM16.614 29.386a.703.703 0 0 0-.995 0L11.206 33.8a.703.703 0 0 0 .994.994l4.414-4.413a.703.703 0 0 0 0-.995ZM17.723 31.49l-2.295 2.296a.703.703 0 0 0 .994.994l2.296-2.296a.703.703 0 0 0-.995-.994Z"/></g><defs><clipPath id="a"><path fill="#fff" d="M11 11h24v24H11z"/></clipPath></defs></svg>