<svg xmlns="http://www.w3.org/2000/svg" width="47" height="47" fill="none"><circle cx="23.5" cy="23.5" r="23.5" fill="#FFE6D2" opacity=".5"/><g clip-path="url(#a)"><path fill="#FFA155" d="m33.729 26.604-.523-.302c-1.731-1-1.736-3.602 0-4.604l.523-.302c.672-.388.902-1.25.515-1.921l-1.703-2.95a1.408 1.408 0 0 0-1.921-.515l-.521.301c-1.72.992-3.99-.283-3.99-2.298v-.607c0-.775-.63-1.406-1.406-1.406h-3.406c-.776 0-1.407.63-1.407 1.406v.607c0 2.015-2.27 3.29-3.989 2.298l-.52-.3a1.405 1.405 0 0 0-1.922.514l-1.703 2.95a1.408 1.408 0 0 0 .515 1.92l.523.303c1.73 1 1.735 3.602 0 4.604l-.523.302a1.408 1.408 0 0 0-.515 1.92l1.703 2.95c.388.672 1.25.903 1.921.516l.521-.301c1.72-.993 3.99.286 3.99 2.298v.607c0 .775.63 1.406 1.406 1.406h3.406c.775 0 1.406-.63 1.406-1.406v-.607c0-2.015 2.27-3.29 3.99-2.298l.52.3a1.408 1.408 0 0 0 1.922-.514l1.703-2.95a1.405 1.405 0 0 0-.515-1.92Zm-2.406 4.168-.521-.301c-2.652-1.53-6.1.413-6.1 3.516v.607h-3.405v-.607c0-3.106-3.45-5.045-6.099-3.516l-.521.3-1.703-2.95.523-.301a4.037 4.037 0 0 0 2.003-3.503v-.035a4.036 4.036 0 0 0-2.003-3.502l-.523-.302 1.703-2.95.521.301c2.651 1.531 6.099-.413 6.099-3.516v-.607h3.406v.607c0 3.074 3.422 5.061 6.099 3.516l.52-.3 1.704 2.95-.524.301c-2.672 1.543-2.668 5.5 0 7.04l.524.302-1.703 2.95Z"/><path fill="#444CFC" d="M23 17.97A6.036 6.036 0 0 0 16.97 24 6.036 6.036 0 0 0 23 30.03 6.036 6.036 0 0 0 29.03 24 6.036 6.036 0 0 0 23 17.97Zm0 10.653A4.628 4.628 0 0 1 18.377 24 4.628 4.628 0 0 1 23 19.377 4.628 4.628 0 0 1 27.623 24 4.628 4.628 0 0 1 23 28.623Z"/><path fill="#444CFC" d="m24.624 22.365-2.38 1.767-.775-.824a.703.703 0 1 0-1.025.962l1.203 1.281c.244.261.645.297.931.084l2.884-2.14a.703.703 0 0 0-.838-1.13Z"/></g><defs><clipPath id="a"><path fill="#fff" d="M11 12h24v24H11z"/></clipPath></defs></svg>