<svg xmlns="http://www.w3.org/2000/svg" width="47" height="47" fill="none"><circle cx="23.5" cy="23.5" r="23.5" fill="#FFE6D2" opacity=".5"/><path fill="#FFA155" fill-rule="evenodd" d="M17.963 17.996h-.966c-.022 0-.041.02-.041.04v2.7c0 .02.02.04.04.04h.968v-2.78Zm11.363-1.21h.967c.688 0 1.249.562 1.249 1.25v2.7c0 .688-.56 1.249-1.25 1.249h-1.67c-.497.79-1.2 1.482-1.955 2.026 0 .97.702 1.761 1.692 1.761 2.891 0 5.238.762 5.238 4.271a.604.604 0 0 1-1.209 0c0-2.814-1.866-3.062-4.03-3.062-.479 0-.932-.118-1.331-.325l-3.228 2.338a.604.604 0 0 1-.719.007l-3.075-2.227a2.881 2.881 0 0 1-1.075.207c-2.163 0-4.029.248-4.029 3.062a.604.604 0 0 1-1.209 0c0-3.509 2.347-4.27 5.238-4.27.89 0 1.623-.694 1.688-1.567-.862-.566-1.667-1.326-2.186-2.221h-1.435c-.689 0-1.25-.561-1.25-1.25v-2.699c0-.688.561-1.25 1.25-1.25h.966v-.862c0-2.905 2.348-5.302 5.247-5.302h.869c2.9 0 5.247 2.397 5.247 5.303v.862Zm-1.209 3.99v-3.918a6.07 6.07 0 0 1-4.576-1.283 6.064 6.064 0 0 1-4.369 1.306V20.7c.263.84.9 1.58 1.635 2.157 1.002.787 2.14 1.251 2.763 1.251.632 0 1.912-.588 2.986-1.55.2-.179.392-.37.569-.573h-1.869a1.007 1.007 0 1 1 0-1.209h2.861Zm2.176-2.78h-.967v2.78h.967c.02 0 .04-.02.04-.04v-2.7c0-.02-.02-.04-.04-.04Zm-2.186-2.354a4.104 4.104 0 0 0-2.434-3.479 6.017 6.017 0 0 1-1.261 2.56 4.88 4.88 0 0 0 3.695.919Zm-3.601-3.788a4.015 4.015 0 0 0-.427-.023h-.869c-2.155 0-3.9 1.713-4.03 3.839a4.876 4.876 0 0 0 5.326-3.816ZM21.06 26.047l2.375 1.72 2.635-1.908a2.898 2.898 0 0 1-.543-1.15c-.763.39-1.48.608-1.957.608-.471 0-1.133-.175-1.835-.494a2.904 2.904 0 0 1-.675 1.224Z" clip-rule="evenodd"/><path stroke="#444CFC" stroke-linecap="round" stroke-width="1.5" d="M14.626 32.521c4.41 3.483 10.447 5.805 18.11 0"/></svg>