<svg xmlns="http://www.w3.org/2000/svg" width="113" height="27" fill="none"><path fill="#C9C9C9" fill-rule="evenodd" d="M11.647.924v3.722a8.96 8.96 0 0 0-6.361 2.655 9.1 9.1 0 0 0-2.635 6.41 9.1 9.1 0 0 0 2.635 6.41 8.96 8.96 0 0 0 6.36 2.656v3.722H0V.924h11.647Zm18.139 6h-2.608V19.58h2.608V6.924Zm2.23 5.763a4.624 4.624 0 0 0-.77 2.557 4.568 4.568 0 0 0 1.31 3.26 4.473 4.473 0 0 0 3.228 1.338 4.538 4.538 0 0 0 2.541-.762 4.591 4.591 0 0 0 1.692-2.058 4.631 4.631 0 0 0-.972-5.02 4.552 4.552 0 0 0-2.336-1.266 4.53 4.53 0 0 0-2.64.257 4.57 4.57 0 0 0-2.052 1.694Zm5.407 1.462c.224.322.349.703.359 1.095h-.017a1.958 1.958 0 0 1-.54 1.456 1.93 1.93 0 0 1-1.425.594c-.39 0-.77-.116-1.095-.334a1.994 1.994 0 0 1-.73-.887 2.012 2.012 0 0 1 .407-2.17 1.977 1.977 0 0 1 2.141-.466c.363.143.676.39.9.712Zm13.214-3.24v8.242c0 2.907-2.26 4.142-4.546 4.142a4.317 4.317 0 0 1-2.335-.466 4.36 4.36 0 0 1-1.741-1.636l2.199-1.278c.178.362.461.66.812.856.351.196.753.279 1.152.238a1.727 1.727 0 0 0 1.407-.466 1.754 1.754 0 0 0 .54-1.39v-.797a3.047 3.047 0 0 1-2.512 1.121 4.329 4.329 0 0 1-3.073-1.283 4.397 4.397 0 0 1-1.273-3.097c0-1.161.458-2.275 1.273-3.097a4.33 4.33 0 0 1 3.073-1.282 3.047 3.047 0 0 1 2.512 1.121v-.876l2.512-.053Zm-2.512 4.16c.017-.42-.09-.834-.309-1.19a2.09 2.09 0 0 0-.917-.813 2.07 2.07 0 0 0-2.302.398 2.107 2.107 0 0 0-.492 2.3c.155.39.422.723.767.958.344.235.75.361 1.167.361a1.933 1.933 0 0 0 1.487-.54 1.963 1.963 0 0 0 .599-1.474Zm4.75-2.38a4.624 4.624 0 0 0-.77 2.555 4.576 4.576 0 0 0 1.318 3.264 4.509 4.509 0 0 0 3.237 1.335 4.538 4.538 0 0 0 2.537-.771 4.59 4.59 0 0 0 1.685-2.062 4.631 4.631 0 0 0-.984-5.014 4.53 4.53 0 0 0-4.974-1 4.57 4.57 0 0 0-2.049 1.693Zm5.407 1.46c.224.321.35.702.36 1.095h-.01a1.958 1.958 0 0 1-.538 1.456 1.929 1.929 0 0 1-1.425.594 1.97 1.97 0 0 1-1.098-.33 2.011 2.011 0 0 1-.333-3.059 1.978 1.978 0 0 1 2.143-.469c.363.143.676.39.9.713Zm4.14-5.561c0-.309.091-.61.261-.867a1.536 1.536 0 0 1 2.38-.236 1.563 1.563 0 0 1 .336 1.7 1.556 1.556 0 0 1-.57.699 1.539 1.539 0 0 1-.86.263c-.409-.005-.8-.17-1.089-.462a1.582 1.582 0 0 1-.458-1.098Zm.252 2.32h2.608v8.672h-2.608v-8.671Zm13.52 6.033a4.41 4.41 0 0 0 .248-1.697 4.41 4.41 0 0 0-1.134-3.151 4.346 4.346 0 0 0-3.012-1.421 3.203 3.203 0 0 0-2.608 1.051v-.815h-2.607v12.158h2.607v-4.284a3.233 3.233 0 0 0 2.608 1.06 4.32 4.32 0 0 0 3.022-1.43c.385-.427.683-.927.876-1.47Zm-2.731-2.832c.232.334.361.728.371 1.135a1.992 1.992 0 0 1-.55 1.52 1.962 1.962 0 0 1-1.492.6 2.04 2.04 0 0 1-1.137-.341 2.063 2.063 0 0 1-.759-.918 2.082 2.082 0 0 1 .416-2.248 2.047 2.047 0 0 1 2.219-.486c.376.149.7.405.932.738Zm10.914 2.87c0 1.997-1.738 2.846-3.58 2.846a3.748 3.748 0 0 1-2.167-.46 3.788 3.788 0 0 1-1.536-1.607l2.242-1.279c.089.313.281.585.546.772a1.4 1.4 0 0 0 .905.253c.618 0 .93-.193.93-.543 0-.344-.55-.498-1.253-.695-1.248-.35-2.98-.835-2.98-2.756 0-1.892 1.583-2.838 3.373-2.838.68-.03 1.357.125 1.957.45.6.326 1.1.809 1.45 1.398l-2.242 1.192a1.262 1.262 0 0 0-1.156-.762c-.452 0-.722.175-.722.481 0 .358.543.503 1.24.69 1.25.334 2.993.8 2.993 2.858Zm9.448 2.6v-8.67h-2.573v4.773c0 1.191-.66 1.752-1.6 1.752a1.415 1.415 0 0 1-1.112-.439 1.438 1.438 0 0 1-.39-1.138V10.91h-2.608v5.342c0 2.339 1.486 3.591 3.224 3.591a2.945 2.945 0 0 0 2.451-1.077v.815h2.608Zm14.775-5.325v5.326h-2.607v-5.098c0-.876-.409-1.419-1.235-1.419-.825 0-1.347.605-1.347 1.63v4.887h-2.607v-5.098c0-.876-.409-1.419-1.234-1.419-.826 0-1.347.605-1.347 1.63v4.887h-2.608v-8.671h2.608v.797a2.642 2.642 0 0 1 2.312-1.034 2.55 2.55 0 0 1 2.251 1.139 2.844 2.844 0 0 1 1.101-.893c.436-.2.916-.284 1.393-.246 2.034 0 3.32 1.419 3.32 3.582ZM11.647 4.646v18.131a8.96 8.96 0 0 0 6.36-2.655 9.1 9.1 0 0 0 2.635-6.41 9.1 9.1 0 0 0-2.634-6.41 8.961 8.961 0 0 0-6.361-2.656ZM112.703 8.93a1.92 1.92 0 0 1-1.912 1.927 1.92 1.92 0 0 1-1.913-1.927 1.92 1.92 0 0 1 1.913-1.927 1.92 1.92 0 0 1 1.912 1.927Z" clip-rule="evenodd"/></svg>