<svg xmlns="http://www.w3.org/2000/svg" width="187" height="106" fill="none"><path fill="#fff" fill-opacity=".45" fill-rule="evenodd" d="M39.392 37.524v4.505a10.845 10.845 0 0 0-7.698 3.213A11.014 11.014 0 0 0 28.506 53c0 2.91 1.146 5.7 3.188 7.758a10.845 10.845 0 0 0 7.698 3.213v4.505H25.297V37.524h14.095Zm0 26.447V42.029c2.888 0 5.657 1.156 7.698 3.213A11.014 11.014 0 0 1 50.28 53c0 2.91-1.147 5.7-3.189 7.758a10.845 10.845 0 0 1-7.698 3.213Zm21.953-19.186h-3.156v15.317h3.156V44.785Zm2.7 6.975a5.595 5.595 0 0 0-.933 3.095 5.526 5.526 0 0 0 1.584 3.946c.511.518 1.12.928 1.791 1.206.671.278 1.39.419 2.116.413a5.492 5.492 0 0 0 3.076-.922 5.555 5.555 0 0 0 2.048-2.491 5.604 5.604 0 0 0 .327-3.218 5.579 5.579 0 0 0-1.504-2.858 5.51 5.51 0 0 0-2.827-1.532 5.483 5.483 0 0 0-3.195.312 5.532 5.532 0 0 0-2.483 2.049Zm6.542 1.77c.271.389.422.85.435 1.325H71a2.368 2.368 0 0 1-.652 1.762 2.336 2.336 0 0 1-1.725.718c-.472 0-.933-.14-1.326-.403a2.413 2.413 0 0 1-.883-1.075 2.434 2.434 0 0 1 .492-2.625 2.381 2.381 0 0 1 2.592-.564c.439.173.817.473 1.088.862Zm15.992-3.922v9.975c0 3.519-2.735 5.013-5.501 5.013a5.224 5.224 0 0 1-2.826-.564 5.275 5.275 0 0 1-2.108-1.98l2.662-1.547c.215.438.558.8.983 1.036.425.237.91.337 1.394.289a2.088 2.088 0 0 0 1.703-.565 2.12 2.12 0 0 0 .653-1.682v-.965a3.69 3.69 0 0 1-3.04 1.357 5.239 5.239 0 0 1-3.719-1.553 5.32 5.32 0 0 1-1.54-3.747 5.32 5.32 0 0 1 1.54-3.748 5.24 5.24 0 0 1 3.72-1.552 3.688 3.688 0 0 1 1.678.316c.528.236.994.592 1.361 1.04v-1.06l3.04-.063Zm-3.04 5.035a2.56 2.56 0 0 0-.373-1.441 2.53 2.53 0 0 0-1.11-.984 2.507 2.507 0 0 0-2.786.482 2.562 2.562 0 0 0-.596 2.784c.187.471.51.875.928 1.16.417.284.909.436 1.412.437a2.341 2.341 0 0 0 1.8-.654 2.376 2.376 0 0 0 .725-1.784Zm5.749-2.881a5.595 5.595 0 0 0-.932 3.093 5.539 5.539 0 0 0 1.595 3.95 5.457 5.457 0 0 0 1.797 1.206 5.422 5.422 0 0 0 2.12.409 5.493 5.493 0 0 0 3.071-.933 5.556 5.556 0 0 0 2.039-2.495c.42-1.017.53-2.136.318-3.216a5.578 5.578 0 0 0-1.509-2.852 5.51 5.51 0 0 0-2.827-1.526 5.482 5.482 0 0 0-3.192.314 5.53 5.53 0 0 0-2.48 2.05Zm6.543 1.767c.272.389.423.85.435 1.326h-.01a2.37 2.37 0 0 1-.652 1.762 2.334 2.334 0 0 1-1.725.718 2.385 2.385 0 0 1-1.329-.398 2.412 2.412 0 0 1-.888-1.072 2.433 2.433 0 0 1 .486-2.63 2.392 2.392 0 0 1 2.593-.568c.44.173.819.473 1.09.862Zm5.011-6.73a1.896 1.896 0 0 1 1.156-1.743 1.86 1.86 0 0 1 2.04.409 1.89 1.89 0 0 1 .406 2.056 1.863 1.863 0 0 1-1.73 1.165 1.884 1.884 0 0 1-1.317-.56 1.918 1.918 0 0 1-.555-1.327Zm.305 2.809h3.156v10.494h-3.156V49.608Zm16.362 7.3a5.352 5.352 0 0 0 .3-2.053 5.326 5.326 0 0 0-1.372-3.814 5.23 5.23 0 0 0-3.646-1.72 3.874 3.874 0 0 0-3.155 1.273v-.986h-3.156V64.32h3.156v-5.184a3.905 3.905 0 0 0 3.155 1.283 5.22 5.22 0 0 0 2-.497 5.27 5.27 0 0 0 2.718-3.014Zm-3.305-3.426c.28.403.437.88.449 1.373a2.409 2.409 0 0 1-.666 1.84 2.375 2.375 0 0 1-1.806.725 2.467 2.467 0 0 1-1.375-.412 2.497 2.497 0 0 1-.919-1.11 2.508 2.508 0 0 1 .504-2.721 2.473 2.473 0 0 1 2.684-.588c.455.179.848.49 1.129.893Zm13.208 3.472c0 2.416-2.104 3.445-4.334 3.445a4.536 4.536 0 0 1-2.621-.558 4.586 4.586 0 0 1-1.86-1.944l2.714-1.547c.108.378.341.707.661.933.319.226.706.334 1.096.307.747 0 1.125-.234 1.125-.658 0-.416-.665-.602-1.517-.841-1.51-.423-3.605-1.01-3.605-3.335 0-2.29 1.914-3.434 4.081-3.434a4.536 4.536 0 0 1 2.368.545 4.574 4.574 0 0 1 1.755 1.691L124.562 53a1.542 1.542 0 0 0-1.399-.922c-.547 0-.873.212-.873.583 0 .432.657.608 1.5.834 1.512.404 3.622.969 3.622 3.459Zm11.434 3.148V49.608h-3.114v5.777c0 1.442-.799 2.12-1.935 2.12a1.71 1.71 0 0 1-1.347-.53 1.747 1.747 0 0 1-.473-1.378v-5.99h-3.155v6.467c0 2.83 1.798 4.346 3.902 4.346a3.58 3.58 0 0 0 2.966-1.304v.986h3.156Zm17.881-6.445v6.445h-3.155v-6.17c0-1.06-.495-1.717-1.494-1.717s-1.63.732-1.63 1.972v5.915h-3.156v-6.17c0-1.06-.494-1.717-1.493-1.717-1 0-1.631.732-1.631 1.972v5.915h-3.155V49.608h3.155v.964a3.199 3.199 0 0 1 2.798-1.25 3.081 3.081 0 0 1 2.724 1.378 3.44 3.44 0 0 1 1.334-1.081 3.405 3.405 0 0 1 1.685-.297c2.462 0 4.018 1.717 4.018 4.335Zm4.965-6.445a2.323 2.323 0 0 1-2.314 2.332 2.323 2.323 0 0 1-2.314-2.332 2.323 2.323 0 0 1 2.314-2.332 2.323 2.323 0 0 1 2.314 2.332Z" clip-rule="evenodd"/></svg>