<svg xmlns="http://www.w3.org/2000/svg" width="186" height="105" fill="none"><path fill="#fff" fill-opacity=".45" d="M43.335 50.79a3.842 3.842 0 0 0-1.095 3.075l-.019-.019a4.576 4.576 0 0 1-1.315 3.609 4.543 4.543 0 0 1-3.596 1.32l.02.019a3.836 3.836 0 0 0-2.268.493 3.856 3.856 0 0 0-1.573 1.71 3.874 3.874 0 0 0 .764 4.374 3.844 3.844 0 0 0 4.358.762 3.854 3.854 0 0 0 1.704-1.58c.392-.69.563-1.484.489-2.275l.02.019a4.575 4.575 0 0 1 1.315-3.61 4.542 4.542 0 0 1 3.596-1.32l-.02-.018a3.829 3.829 0 0 0 3.388-1.489 3.862 3.862 0 0 0-2.216-6.114 3.827 3.827 0 0 0-3.55 1.043h-.002ZM35.616 56.318l-.02-.02a3.787 3.787 0 0 0 3.066-1.096 3.813 3.813 0 0 0 1.095-3.076l.02.019a4.576 4.576 0 0 1 1.315-3.609 4.542 4.542 0 0 1 3.596-1.32l-.02-.019a3.837 3.837 0 0 0 2.268-.49 3.857 3.857 0 0 0 1.575-1.711 3.874 3.874 0 0 0-.762-4.374 3.843 3.843 0 0 0-4.358-.764 3.854 3.854 0 0 0-1.705 1.58 3.873 3.873 0 0 0-.49 2.276l-.018-.02a4.575 4.575 0 0 1-1.315 3.609 4.542 4.542 0 0 1-3.596 1.32l.019.02a3.786 3.786 0 0 0-3.066 1.096 3.814 3.814 0 0 0-1.095 3.076l-.019-.019a4.576 4.576 0 0 1-1.316 3.608 4.544 4.544 0 0 1-3.595 1.32l.019.02a3.836 3.836 0 0 0-2.268.49 3.856 3.856 0 0 0-1.574 1.711 3.874 3.874 0 0 0 .76 4.374 3.843 3.843 0 0 0 4.36.764 3.853 3.853 0 0 0 1.704-1.58c.392-.69.563-1.484.49-2.276l.02.02a4.576 4.576 0 0 1 1.314-3.61 4.542 4.542 0 0 1 3.596-1.32ZM28.604 54.21a3.836 3.836 0 0 0 1.094-3.075l.02.019a4.575 4.575 0 0 1 1.315-3.61 4.544 4.544 0 0 1 3.598-1.319l-.02-.019a3.836 3.836 0 0 0 2.267-.491 3.856 3.856 0 0 0 1.573-1.71 3.874 3.874 0 0 0-.761-4.373 3.842 3.842 0 0 0-4.357-.764 3.853 3.853 0 0 0-1.704 1.58 3.872 3.872 0 0 0-.49 2.274l-.018-.019a4.576 4.576 0 0 1-1.316 3.61 4.543 4.543 0 0 1-3.596 1.32l.02.018a3.83 3.83 0 0 0-3.388 1.49 3.86 3.86 0 0 0 2.216 6.113 3.827 3.827 0 0 0 3.55-1.043h-.003ZM61.014 43.738h3.107v15.175h-3.107V43.738ZM65.881 53.717a5.524 5.524 0 0 1 .915-3.067 5.494 5.494 0 0 1 2.459-2.039 5.472 5.472 0 0 1 5.99 1.18 5.527 5.527 0 0 1 1.2 6.007 5.505 5.505 0 0 1-2.022 2.476 5.475 5.475 0 0 1-3.052.93 5.41 5.41 0 0 1-3.893-1.587 5.446 5.446 0 0 1-1.597-3.9Zm7.872 0a2.398 2.398 0 0 0-1.516-2.162 2.375 2.375 0 0 0-2.575.56 2.394 2.394 0 0 0-.487 2.599 2.39 2.39 0 0 0 2.196 1.461 2.316 2.316 0 0 0 1.727-.705 2.332 2.332 0 0 0 .655-1.753ZM89.245 48.52v9.87c0 3.492-2.714 4.968-5.469 4.968a5.281 5.281 0 0 1-2.807-.568 5.304 5.304 0 0 1-2.102-1.952l2.651-1.538a2.371 2.371 0 0 0 2.362 1.31 2.058 2.058 0 0 0 1.702-.549 2.073 2.073 0 0 0 .638-1.676v-.95a3.68 3.68 0 0 1-3.025 1.351 5.255 5.255 0 0 1-3.614-1.604 5.293 5.293 0 0 1 0-7.352 5.255 5.255 0 0 1 3.614-1.604 3.668 3.668 0 0 1 3.025 1.352v-1.06l3.025.001Zm-3.024 4.988a2.526 2.526 0 0 0-1.476-2.402 2.502 2.502 0 0 0-2.772.48 2.522 2.522 0 0 0-.59 2.76c.188.466.51.865.926 1.146.415.282.905.431 1.406.43a2.334 2.334 0 0 0 1.787-.649 2.353 2.353 0 0 0 .72-1.765ZM91.004 53.717a5.525 5.525 0 0 1 .915-3.067 5.494 5.494 0 0 1 2.46-2.039 5.472 5.472 0 0 1 5.989 1.18 5.518 5.518 0 0 1 1.2 6.007 5.504 5.504 0 0 1-2.022 2.476 5.475 5.475 0 0 1-3.052.93 5.41 5.41 0 0 1-3.892-1.587 5.45 5.45 0 0 1-1.598-3.9Zm7.872 0a2.397 2.397 0 0 0-1.516-2.162 2.375 2.375 0 0 0-2.574.56 2.394 2.394 0 0 0 1.708 4.06 2.316 2.316 0 0 0 1.728-.705 2.335 2.335 0 0 0 .654-1.753ZM103.433 45.734a1.874 1.874 0 0 1 1.151-1.729 1.858 1.858 0 0 1 2.032.406 1.871 1.871 0 0 1 .404 2.039 1.867 1.867 0 0 1-1.722 1.155 1.879 1.879 0 0 1-1.313-.553 1.892 1.892 0 0 1-.552-1.318Zm.314 2.785h3.108v10.395h-3.112l.004-10.395ZM120.272 53.717a5.23 5.23 0 0 1-1.338 3.777 5.2 5.2 0 0 1-3.612 1.71 3.872 3.872 0 0 1-3.086-1.268v5.135h-3.107V48.52h3.107v.977a3.892 3.892 0 0 1 3.086-1.268 5.204 5.204 0 0 1 4.658 3.465c.229.65.329 1.337.292 2.024Zm-3.107 0a2.48 2.48 0 0 0-1.564-2.241 2.455 2.455 0 0 0-2.665.576 2.48 2.48 0 0 0 .402 3.788c.404.27.878.413 1.363.413a2.359 2.359 0 0 0 2.325-1.554 2.38 2.38 0 0 0 .139-.982ZM129.861 55.795c0 2.39-2.07 3.41-4.307 3.41a4.52 4.52 0 0 1-2.605-.551 4.548 4.548 0 0 1-1.849-1.924l2.692-1.538a1.709 1.709 0 0 0 1.758 1.227c.745 0 1.118-.23 1.118-.644 0-1.145-5.096-.54-5.096-4.137 0-2.267 1.906-3.41 4.06-3.41a4.53 4.53 0 0 1 4.039 2.224l-2.651 1.435a1.505 1.505 0 0 0-1.388-.915c-.538 0-.87.21-.87.582.004 1.185 5.099.395 5.099 4.24ZM141.212 48.52v10.394h-3.107v-.977a3.54 3.54 0 0 1-2.961 1.268c-2.092 0-3.871-1.496-3.871-4.305v-6.38h3.107v5.924c-.026.247.002.497.083.733a1.705 1.705 0 0 0 1.719 1.157c1.139 0 1.926-.665 1.926-2.141v-5.67l3.104-.004ZM159.03 52.532v6.382h-3.107V52.8c0-1.04-.497-1.704-1.491-1.704-1.036 0-1.617.728-1.617 1.954v5.862h-3.106v-6.112c0-1.04-.497-1.704-1.492-1.704-1.036 0-1.616.728-1.616 1.954v5.862h-3.107V48.52h3.107v.955a3.171 3.171 0 0 1 2.776-1.246 3.075 3.075 0 0 1 2.713 1.37 3.416 3.416 0 0 1 3.004-1.37c2.378 0 3.936 1.705 3.936 4.304ZM161.658 48.455a2.31 2.31 0 0 0 2.306-2.314 2.31 2.31 0 0 0-2.306-2.314 2.31 2.31 0 0 0-2.306 2.314 2.31 2.31 0 0 0 2.306 2.314Z"/></svg>