<svg xmlns="http://www.w3.org/2000/svg" width="186" height="104" fill="none"><path fill="#fff" fill-opacity=".45" d="M71.019 59.685a2.784 2.784 0 0 1-1.748-.499 1.624 1.624 0 0 1-.659-1.362v-9.641a.27.27 0 0 1 .182-.289.274.274 0 0 1 .122-.013h1.758c.198 0 .292.104.292.302v8.892c0 .395.178.593.544.593.156.006.311-.011.46-.052.21 0 .325.062.336.25l.157 1.3a.27.27 0 0 1-.251.322 3.962 3.962 0 0 1-1.193.197ZM80.906 58.573a4.946 4.946 0 0 1-6.278 0 4.147 4.147 0 0 1-1.212-2.928c0-1.096.436-2.148 1.212-2.927a4.967 4.967 0 0 1 6.278 0 4.209 4.209 0 0 1 1.181 2.922c0 1.09-.423 2.136-1.181 2.922v.01ZM76.28 57.2a2.236 2.236 0 0 0 2.993 0 2.322 2.322 0 0 0 0-3.058 2.236 2.236 0 0 0-2.993 0 2.322 2.322 0 0 0 0 3.058ZM91.765 51.865c.2 0 .293.104.293.301v7.457a3.373 3.373 0 0 1-1.161 2.673 4.41 4.41 0 0 1-3.045 1.04 4.918 4.918 0 0 1-2.835-.78 3.13 3.13 0 0 1-1.37-2.08c0-.208 0-.302.282-.302h1.758a.39.39 0 0 1 .345.24c.114.316.341.578.638.738a2.46 2.46 0 0 0 1.172.27 1.86 1.86 0 0 0 1.35-.478 1.765 1.765 0 0 0 .491-1.3v-.655c-.629.46-1.395.698-2.176.676a4.08 4.08 0 0 1-2.971-1.134 4.147 4.147 0 0 1-1.176-2.891c0-1.079.421-2.115 1.176-2.891a4.095 4.095 0 0 1 2.971-1.123 3.53 3.53 0 0 1 2.229.717v-.166a.27.27 0 0 1 .292-.302l1.737-.01Zm-4.06 5.949a1.85 1.85 0 0 0 1.434-.614 2.538 2.538 0 0 0 0-3.12 1.831 1.831 0 0 0-1.423-.603 1.894 1.894 0 0 0-1.454.613 2.197 2.197 0 0 0-.565 1.56c-.019.568.18 1.122.555 1.55a1.893 1.893 0 0 0 1.454.614ZM101.087 58.573a4.967 4.967 0 0 1-6.277 0 4.22 4.22 0 0 1-1.183-2.928c0-1.09.424-2.14 1.183-2.928a4.978 4.978 0 0 1 6.277 0 4.206 4.206 0 0 1 0 5.845v.01ZM96.452 57.2a2.096 2.096 0 0 0 1.507.572 2.102 2.102 0 0 0 1.496-.572 2.352 2.352 0 0 0 0-3.058 2.094 2.094 0 0 0-1.496-.572 2.103 2.103 0 0 0-1.507.572 2.352 2.352 0 0 0 0 3.058ZM106.047 50.097a1.524 1.524 0 0 1-1.999 0 1.258 1.258 0 0 1 0-1.83 1.557 1.557 0 0 1 1.999 0 1.258 1.258 0 0 1 0 1.83Zm.219 9.589a2.828 2.828 0 0 1-1.747-.5 1.633 1.633 0 0 1-.648-1.362v-5.658a.262.262 0 0 1 .077-.224.273.273 0 0 1 .226-.077h1.758c.198 0 .293.104.293.301v4.91c0 .394.177.592.533.592.159.006.317-.012.471-.052.209 0 .324.062.335.25l.157 1.3a.269.269 0 0 1-.14.292.279.279 0 0 1-.111.03 3.996 3.996 0 0 1-1.204.198ZM114.186 51.615a4.123 4.123 0 0 1 2.992 1.123 4.25 4.25 0 0 1 1.152 2.907 4.25 4.25 0 0 1-1.152 2.907 4.092 4.092 0 0 1-2.992 1.134A3.613 3.613 0 0 1 112 59.01v3.754c0 .198-.105.291-.304.291h-1.758a.252.252 0 0 1-.285-.171.231.231 0 0 1-.007-.12v-8.528a.545.545 0 0 0-.618-.614h-.345c-.23 0-.345-.083-.345-.25v-1.226a.326.326 0 0 1 .059-.214.336.336 0 0 1 .181-.13c.362-.13.745-.194 1.13-.187a1.934 1.934 0 0 1 1.894 1.04 3.529 3.529 0 0 1 2.584-1.04Zm-1.632 5.585a2.006 2.006 0 0 0 2.888 0 2.238 2.238 0 0 0 .575-1.591 2.204 2.204 0 0 0-.575-1.591 2.004 2.004 0 0 0-2.888 0 2.285 2.285 0 0 0-.554 1.59c-.022.581.176 1.149.554 1.592ZM123.268 59.685a5.065 5.065 0 0 1-2.689-.644 2.548 2.548 0 0 1-1.214-1.841c0-.208.073-.312.304-.312h1.538a.4.4 0 0 1 .345.229c.22.561.795.842 1.716.842.321.015.641-.05.931-.187a.61.61 0 0 0 .356-.51c0-.27-.168-.457-.503-.582a5.679 5.679 0 0 0-1.224-.26 11.697 11.697 0 0 1-1.464-.26 2.413 2.413 0 0 1-1.225-.697 2.22 2.22 0 0 1 .45-3.224 4.33 4.33 0 0 1 2.532-.665c.865-.03 1.72.183 2.469.613a2.326 2.326 0 0 1 1.151 1.633c0 .208-.094.312-.282.312h-1.549a.326.326 0 0 1-.314-.187 1.04 1.04 0 0 0-.544-.551 1.849 1.849 0 0 0-.899-.209 1.832 1.832 0 0 0-.89.177.512.512 0 0 0-.334.478.66.66 0 0 0 .502.614c.401.15.819.255 1.245.312.489.064.975.155 1.454.27a2.41 2.41 0 0 1 1.224.697 1.962 1.962 0 0 1 .513 1.425 2.085 2.085 0 0 1-.973 1.81 4.594 4.594 0 0 1-2.626.717ZM137.926 59.166a.273.273 0 0 1-.053.212.28.28 0 0 1-.188.11c-.382.124-.781.19-1.182.197a2.336 2.336 0 0 1-2.093-.904 3.801 3.801 0 0 1-2.668.904 3.262 3.262 0 0 1-2.448-.946 3.406 3.406 0 0 1-.931-2.506v-4.067c0-.197.094-.301.293-.301h1.758c.198 0 .293.104.293.301v3.755c-.02.468.141.925.449 1.279a1.57 1.57 0 0 0 1.204.489 1.744 1.744 0 0 0 1.255-.458c.159-.163.284-.357.365-.57.08-.213.117-.44.106-.668v-3.827c0-.197.094-.301.293-.301h1.778c.199 0 .293.104.293.301v4.899c0 .405.178.603.523.603.163.006.325-.011.482-.052a.269.269 0 0 1 .233.042.27.27 0 0 1 .112.207l.126 1.3ZM154.55 59.166a.257.257 0 0 1-.13.292.265.265 0 0 1-.11.03 4.089 4.089 0 0 1-1.204.198 2.805 2.805 0 0 1-1.747-.5 1.628 1.628 0 0 1-.701-1.362V55.38a1.835 1.835 0 0 0-.439-1.28 1.486 1.486 0 0 0-1.172-.488 1.313 1.313 0 0 0-1.046.458 1.843 1.843 0 0 0-.398 1.227v3.838c0 .197-.094.301-.293.301h-1.768a.274.274 0 0 1-.291-.18.276.276 0 0 1-.012-.121V55.38a1.916 1.916 0 0 0-.408-1.28 1.364 1.364 0 0 0-1.047-.488 1.521 1.521 0 0 0-1.15.458c-.3.337-.454.778-.429 1.227v3.838a.277.277 0 0 1-.078.224.27.27 0 0 1-.226.077h-1.705c-.199 0-.293-.104-.293-.301v-4.899a.538.538 0 0 0-.367-.592.545.545 0 0 0-.25-.021h-.346c-.23 0-.345-.084-.345-.25v-1.227a.335.335 0 0 1 .241-.343c.362-.131.745-.195 1.13-.188a1.964 1.964 0 0 1 1.862.957 3.54 3.54 0 0 1 2.657-.957 3.02 3.02 0 0 1 2.48 1.103 3.451 3.451 0 0 1 2.741-1.103 3.325 3.325 0 0 1 2.48.947 3.384 3.384 0 0 1 .931 2.506v2.007c0 .395.178.593.513.593.162.008.324-.01.481-.052.216 0 .331.083.345.25l.094 1.3ZM31.868 50.513a14.23 14.23 0 0 1 5.079-7.78 14.378 14.378 0 0 1 8.82-3.02c3.198 0 6.303 1.063 8.822 3.02a14.23 14.23 0 0 1 5.078 7.78H58.41a10.18 10.18 0 0 0-5.932 1.799 3.02 3.02 0 0 1-.314.198h-.146a3.018 3.018 0 0 1-.314-.198 10.685 10.685 0 0 0-5.937-1.8c-2.115 0-4.182.627-5.938 1.8a3.02 3.02 0 0 1-.314.198h-.146a3.018 3.018 0 0 1-.314-.198 10.18 10.18 0 0 0-5.932-1.8h-1.256Zm24.284 6.52a3.539 3.539 0 0 1 2.26-.738h1.684v-3.338H58.41a6.702 6.702 0 0 0-4.007 1.269 3.824 3.824 0 0 1-4.52 0 7.144 7.144 0 0 0-8.129 0 3.824 3.824 0 0 1-4.52 0 6.701 6.701 0 0 0-4.059-1.27H31.44v3.34h1.685a3.54 3.54 0 0 1 2.26.738 7.123 7.123 0 0 0 8.119 0 3.56 3.56 0 0 1 2.26-.739 3.519 3.519 0 0 1 2.26.739 7.145 7.145 0 0 0 8.129 0Zm0 5.97a3.539 3.539 0 0 1 2.26-.738h1.684v-3.339H58.41a6.702 6.702 0 0 0-4.007 1.27 3.824 3.824 0 0 1-4.52 0 7.144 7.144 0 0 0-8.129 0 3.824 3.824 0 0 1-4.52 0 6.701 6.701 0 0 0-4.059-1.27H31.44v3.339h1.685a3.54 3.54 0 0 1 2.26.738 7.123 7.123 0 0 0 8.119 0 3.56 3.56 0 0 1 2.26-.738 3.519 3.519 0 0 1 2.26.738 7.145 7.145 0 0 0 8.129 0Z"/></svg>