<svg xmlns="http://www.w3.org/2000/svg" width="187" height="105" fill="none"><path fill="#fff" fill-opacity=".45" d="M67.183 46.273h3.155V59.01h-3.155V46.274Zm4.407 7.928c0-3.15 1.935-5.03 4.923-5.03 2.987 0 4.922 1.88 4.922 5.03 0 3.15-1.893 5.04-4.922 5.04-3.03 0-4.923-1.837-4.923-5.04Zm6.68 0c0-1.733-.684-2.751-1.757-2.751s-1.747 1.05-1.747 2.751c0 1.701.663 2.73 1.747 2.73 1.083 0 1.756-.966 1.756-2.72v-.01Zm4.354 5.428h3.03a1.629 1.629 0 0 0 1.703.946c1.2 0 1.83-.652 1.83-1.597v-1.764h-.063a2.984 2.984 0 0 1-2.871 1.723c-2.304 0-3.829-1.754-3.829-4.767 0-3.014 1.452-4.915 3.87-4.915a3.023 3.023 0 0 1 2.904 1.848V49.35h3.156v9.555c0 2.3-2.03 3.727-5.028 3.727-2.788 0-4.523-1.249-4.702-2.992v-.01Zm6.574-5.438c0-1.534-.705-2.5-1.82-2.5-1.115 0-1.798.956-1.798 2.5 0 1.543.673 2.414 1.798 2.414 1.126 0 1.82-.85 1.82-2.404v-.01Zm4.344 0c0-3.15 1.936-5.03 4.923-5.03s4.933 1.88 4.933 5.03c0 3.15-1.893 5.04-4.933 5.04s-4.923-1.828-4.923-5.03v-.01Zm6.68 0c0-1.733-.684-2.752-1.757-2.752s-1.694 1.061-1.694 2.773c0 1.711.663 2.73 1.736 2.73s1.715-.977 1.715-2.73v-.022Zm4.375-7.13a1.61 1.61 0 1 1 3.109.541 1.611 1.611 0 0 1-1.468 1.024 1.535 1.535 0 0 1-1.641-1.544v-.021Zm0 2.31h3.156v9.639h-3.156v-9.639Zm14.611 4.82c0 3.15-1.399 4.945-3.798 4.945a3.01 3.01 0 0 1-2.945-1.785h-.063v4.746h-3.155V49.35h3.155v1.722h.063a3.015 3.015 0 0 1 2.924-1.858c2.42.041 3.861 1.848 3.861 4.998l-.042-.022Zm-3.156 0c0-1.534-.705-2.51-1.809-2.51-1.105 0-1.809.987-1.82 2.51-.01 1.522.715 2.498 1.82 2.498 1.104 0 1.809-.955 1.809-2.477v-.022Zm8.573-5.04c2.619 0 4.207 1.238 4.281 3.223h-2.872c0-.683-.568-1.113-1.441-1.113-.873 0-1.262.336-1.262.83 0 .493.347.65 1.052.797l2.019.41c1.925.41 2.746 1.186 2.746 2.646 0 1.995-1.82 3.276-4.502 3.276-2.682 0-4.439-1.281-4.576-3.245h3.04c.095.715.663 1.134 1.588 1.134.926 0 1.347-.304 1.347-.808s-.295-.609-1.052-.767l-1.82-.388c-1.883-.389-2.871-1.386-2.871-2.856.021-1.89 1.714-3.118 4.323-3.118v-.021Zm15.052 9.838h-3.04v-1.795h-.063a2.74 2.74 0 0 1-2.798 2.005 3.364 3.364 0 0 1-2.594-1.007 3.348 3.348 0 0 1-.94-2.615V49.35h3.155v5.502c0 1.145.589 1.754 1.568 1.754a1.61 1.61 0 0 0 1.543-1.14c.066-.22.085-.45.055-.677V49.35h3.156l-.042 9.639Zm1.525-9.639h3.051v1.858h.063a2.789 2.789 0 0 1 1.024-1.486 2.803 2.803 0 0 1 1.721-.55 2.516 2.516 0 0 1 2.682 2.1h.063a2.962 2.962 0 0 1 2.967-2.1 3.064 3.064 0 0 1 2.981 2.016c.146.403.205.832.174 1.26v6.562h-3.155v-5.722c0-1.05-.474-1.533-1.357-1.533a1.38 1.38 0 0 0-1.329.972 1.362 1.362 0 0 0-.049.582v5.701h-2.998v-5.764c0-.967-.473-1.492-1.336-1.492a1.415 1.415 0 0 0-1.054.474 1.417 1.417 0 0 0-.345 1.102v5.68h-3.155l.052-9.66ZM58.357 46.6a13.912 13.912 0 0 0-2.103-3.38 14.227 14.227 0 0 0-10.427-5.208A14.254 14.254 0 0 0 35 42.332a14.203 14.203 0 0 0-3.96 10.946 14.188 14.188 0 0 0 5.565 10.228 13.776 13.776 0 0 0 3.366 1.921 14.105 14.105 0 0 0 5.333 1.05A14.276 14.276 0 0 0 55.365 62.3a14.225 14.225 0 0 0 4.17-10.05 14.038 14.038 0 0 0-1.178-5.65Zm-13.064-5.7c1.643 0 3.265.357 4.755 1.05a4.619 4.619 0 0 1-1.136.325 6.031 6.031 0 0 0-3.399 1.7 6.013 6.013 0 0 0-1.703 3.392 3.147 3.147 0 0 1-2.85 2.783 6.031 6.031 0 0 0-3.399 1.7 6.012 6.012 0 0 0-1.703 3.392 3.053 3.053 0 0 1-.831 1.827 11.322 11.322 0 0 1 .672-10.92 11.351 11.351 0 0 1 4.123-3.868 11.376 11.376 0 0 1 5.482-1.403l-.01.021Zm-8.699 18.7c.127-.116.253-.22.379-.347a5.75 5.75 0 0 0 1.704-3.391 3.064 3.064 0 0 1 .915-1.911 2.98 2.98 0 0 1 1.904-.903 6.03 6.03 0 0 0 3.398-1.7 6.012 6.012 0 0 0 1.703-3.393 3.064 3.064 0 0 1 .916-2.005 3.022 3.022 0 0 1 1.925-.872 5.768 5.768 0 0 0 3.155-1.501c.992.82 1.832 1.809 2.482 2.919a.895.895 0 0 1-.136.147 3.02 3.02 0 0 1-1.904.924 6.01 6.01 0 0 0-3.402 1.696 5.992 5.992 0 0 0-1.7 3.396 3.148 3.148 0 0 1-2.83 2.814 6.064 6.064 0 0 0-3.411 1.697 6.045 6.045 0 0 0-1.721 3.396 3.292 3.292 0 0 1-.516 1.438 11.449 11.449 0 0 1-2.86-2.404Zm8.7 4.053a11.42 11.42 0 0 1-3.156-.441c.35-.653.579-1.365.673-2.1a3.148 3.148 0 0 1 2.819-2.814 6.03 6.03 0 0 0 3.404-1.698 6.012 6.012 0 0 0 1.708-3.395 3.158 3.158 0 0 1 2.819-2.814 6.012 6.012 0 0 0 2.693-1.05 11.342 11.342 0 0 1-1.976 9.814 11.377 11.377 0 0 1-8.985 4.445v.053Z"/></svg>