<svg xmlns="http://www.w3.org/2000/svg" width="187" height="105" fill="none"><path fill="#fff" fill-opacity=".45" d="M64.7 46.473h3.377v13.65H64.7v-13.65Zm4.723 8.516c0-3.381 2.104-5.408 5.26-5.408 3.155 0 5.259 2.027 5.259 5.408 0 3.38-2.03 5.428-5.26 5.428-3.229 0-5.259-1.974-5.259-5.428Zm7.174 0c0-1.859-.726-2.95-1.883-2.95s-1.872 1.05-1.872 2.95c0 1.9.715 2.94 1.872 2.94s1.904-1.04 1.904-2.93l-.021-.01Zm4.691 5.838h3.26a1.744 1.744 0 0 0 1.831 1.05c1.294 0 1.967-.693 1.967-1.722v-1.89h.01a3.226 3.226 0 0 1-3.155 1.837c-2.472 0-4.113-1.88-4.113-5.113 0-3.234 1.568-5.25 4.208-5.25a3.233 3.233 0 0 1 3.155 1.984h-.094v-1.9H91.7V60.05c0 2.467-2.187 4.01-5.406 4.01-2.924-.01-4.797-1.343-4.986-3.223l-.02-.01Zm7.069-5.838c0-1.649-.758-2.688-1.957-2.688s-1.935 1.05-1.935 2.688c0 1.638.725 2.604 1.935 2.604s1.957-.893 1.957-2.604Zm4.68 0c0-3.381 2.104-5.408 5.26-5.408 3.155 0 5.259 2.027 5.259 5.408 0 3.38-2.041 5.428-5.26 5.428-3.218 0-5.238-1.974-5.238-5.428h-.02Zm7.174 0c0-1.859-.736-2.95-1.883-2.95-1.146 0-1.872 1.05-1.872 2.95 0 1.9.715 2.94 1.872 2.94s1.904-1.04 1.904-2.93l-.021-.01Zm4.712-7.655a1.721 1.721 0 0 1 1.013-1.642 1.728 1.728 0 0 1 2.397 1.205 1.718 1.718 0 0 1-.719 1.79 1.727 1.727 0 0 1-.966.296 1.666 1.666 0 0 1-1.567-1 1.67 1.67 0 0 1-.137-.638l-.021-.01Zm0 2.478h3.419v10.353h-3.366l-.053-10.353Zm15.715 5.177c0 3.37-1.514 5.323-4.092 5.323a3.234 3.234 0 0 1-3.155-1.921h-.063v5.103h-3.377v-13.65h3.356v1.848h.063a3.246 3.246 0 0 1 3.155-1.995c2.651-.021 4.176 1.921 4.176 5.302l-.063-.01Zm-3.439 0c0-1.638-.768-2.699-1.957-2.699-1.188 0-1.935 1.05-1.946 2.699-.01 1.648.758 2.688 1.946 2.688 1.189 0 2.02-.977 2.02-2.678l-.063-.01Zm9.203-5.418c2.83 0 4.587 1.333 4.608 3.475h-3.082c0-.745-.621-1.207-1.547-1.207-.925 0-1.367.357-1.367.892 0 .536.389.704 1.168.861l2.166.441c2.104.441 2.946 1.281 2.946 2.846 0 2.1-1.946 3.528-4.839 3.528-2.893 0-4.775-1.386-4.912-3.497h3.271c.095.767.705 1.218 1.694 1.218.988 0 1.451-.315 1.451-.871 0-.557-.315-.651-1.125-.82l-1.957-.409c-2.03-.43-3.092-1.49-3.092-3.076.063-2.058 1.83-3.37 4.681-3.37l-.064-.011Zm16.199 10.584h-3.271v-1.943h-.063a2.97 2.97 0 0 1-3.019 2.153 3.61 3.61 0 0 1-3.52-2.402 3.595 3.595 0 0 1-.193-1.494v-6.646h3.376v5.922c0 1.218.642 1.88 1.694 1.88a1.728 1.728 0 0 0 1.644-1.246 1.71 1.71 0 0 0 .049-.729v-5.827h3.366l-.063 10.332Zm1.63-10.343h3.282v1.995h.074a3.008 3.008 0 0 1 2.956-2.184 2.695 2.695 0 0 1 2.882 2.195h.147a3.153 3.153 0 0 1 3.156-2.195 3.283 3.283 0 0 1 3.211 2.162c.157.434.221.896.186 1.356v7.024h-3.397v-6.163c0-1.05-.495-1.638-1.452-1.638a1.474 1.474 0 0 0-1.433 1.043 1.46 1.46 0 0 0-.05.626v6.132h-3.219V53.97c0-1.05-.515-1.606-1.441-1.606a1.508 1.508 0 0 0-1.449 1.057c-.063.205-.082.42-.055.633v6.111h-3.376l-.022-10.353ZM58.02 47.365c0-2.09-.632-4.13-1.813-5.856a10.39 10.39 0 0 0-4.809-3.811 10.41 10.41 0 0 0-11.428 2.654H26.843v27.657H54.56V55.082a10.364 10.364 0 0 0 3.46-7.718Zm-5.333 0a5.055 5.055 0 0 1-3.122 4.684 5.078 5.078 0 0 1-5.529-1.09 5.058 5.058 0 0 1 3.581-8.644c1.343 0 2.631.532 3.582 1.479a5.056 5.056 0 0 1 1.489 3.572Zm-3.46 15.32h-17.05v-17.01h5.195c-.1.558-.153 1.123-.157 1.69a10.386 10.386 0 0 0 3.05 7.34 10.423 10.423 0 0 0 7.352 3.045c.54-.003 1.078-.048 1.61-.136v5.071Z"/></svg>