<svg xmlns="http://www.w3.org/2000/svg" width="17" height="17" fill="none"><g fill="#232536" clip-path="url(#a)"><path d="M8.334 1.963c2.137 0 2.39.01 3.23.047.782.034 1.204.166 1.485.275.372.144.64.319.919.597.281.281.453.547.597.919.11.28.24.706.275 1.484.037.844.047 1.097.047 3.231 0 2.138-.01 2.39-.047 3.232-.035.78-.166 1.203-.275 1.484-.144.372-.319.64-.597.919a2.462 2.462 0 0 1-.919.597c-.281.109-.706.24-1.484.275-.844.037-1.097.046-3.231.046-2.138 0-2.391-.009-3.232-.046-.781-.035-1.203-.166-1.484-.275a2.475 2.475 0 0 1-.919-.597 2.461 2.461 0 0 1-.597-.92c-.11-.28-.24-.705-.275-1.483-.037-.844-.047-1.097-.047-3.232 0-2.137.01-2.39.047-3.231.035-.781.166-1.203.275-1.484.144-.372.319-.641.597-.92a2.46 2.46 0 0 1 .919-.596c.281-.11.706-.24 1.484-.275.84-.038 1.094-.047 3.232-.047Zm0-1.44c-2.172 0-2.444.009-3.297.046-.85.038-1.435.175-1.941.372a3.905 3.905 0 0 0-1.419.925 3.92 3.92 0 0 0-.925 1.416c-.197.51-.334 1.09-.372 1.94-.037.857-.047 1.129-.047 3.3 0 2.172.01 2.444.047 3.297.038.85.175 1.435.372 1.941.206.528.478.975.925 1.419.444.444.89.719 1.416.922.51.197 1.09.334 1.94.372.854.037 1.125.046 3.297.046s2.444-.009 3.297-.046c.85-.038 1.435-.175 1.94-.372a3.91 3.91 0 0 0 1.416-.922c.444-.444.72-.89.922-1.416.197-.51.335-1.09.372-1.94.038-.854.047-1.126.047-3.297 0-2.172-.01-2.444-.047-3.297-.037-.85-.175-1.435-.372-1.94a3.747 3.747 0 0 0-.915-1.423 3.91 3.91 0 0 0-1.416-.922c-.51-.197-1.09-.334-1.94-.372-.857-.04-1.129-.05-3.3-.05Z"/><path d="M8.334 4.413a4.11 4.11 0 0 0 0 8.219 4.11 4.11 0 0 0 0-8.219Zm0 6.775a2.666 2.666 0 1 1 0-5.332 2.666 2.666 0 0 1 0 5.332ZM13.565 4.25a.96.96 0 1 1-1.92 0 .96.96 0 0 1 1.92 0Z"/></g><defs><clipPath id="a"><path fill="#fff" d="M.333.522h16v16h-16z"/></clipPath></defs></svg>