<svg xmlns="http://www.w3.org/2000/svg" width="47" height="47" fill="none"><circle cx="23.5" cy="23.5" r="23.5" fill="#FFA155" fill-opacity=".1"/><g clip-path="url(#a)"><path fill="#FFA155" d="M14.021 12.045h18.957c1.115 0 2.022.907 2.022 2.021v18.868a2.024 2.024 0 0 1-2.022 2.021H14.021A2.024 2.024 0 0 1 12 32.934V14.066c0-1.114.907-2.021 2.021-2.021Zm18.957 1.348H14.021a.675.675 0 0 0-.673.673v3.37h20.304v-3.37a.675.675 0 0 0-.674-.673ZM14.021 33.607h18.957a.675.675 0 0 0 .674-.673v-14.15H13.348v14.15c0 .371.302.673.673.673Z"/><path fill="#444CFC" d="M21.213 20.86a.674.674 0 0 1 .885.353l4.043 9.434a.674.674 0 1 1-1.239.53l-4.043-9.433a.674.674 0 0 1 .354-.885ZM27.017 23.08a.674.674 0 0 1 .947-.106l3.37 2.695a.674.674 0 0 1 0 1.052l-3.37 2.696a.674.674 0 1 1-.842-1.053l2.712-2.169-2.712-2.169a.674.674 0 0 1-.105-.947ZM15.667 25.67l3.37-2.696a.674.674 0 1 1 .84 1.052l-2.71 2.17 2.71 2.168a.674.674 0 1 1-.84 1.053l-3.37-2.696a.674.674 0 0 1 0-1.052Z"/><path fill="#FFA155" d="M31.586 16.088a.674.674 0 1 1 0-1.348.674.674 0 0 1 0 1.348ZM28.89 16.088a.674.674 0 1 1 0-1.348.674.674 0 0 1 0 1.348ZM26.195 16.088a.674.674 0 1 1 0-1.348.674.674 0 0 1 0 1.348ZM19.457 16.088h-4.043a.674.674 0 1 1 0-1.348h4.043a.674.674 0 1 1 0 1.348Z"/></g><defs><clipPath id="a"><path fill="#fff" d="M35 12H12v23h23z"/></clipPath></defs></svg>