<svg xmlns="http://www.w3.org/2000/svg" width="47" height="47" fill="none"><circle cx="23.5" cy="23.5" r="23.5" fill="#FFA155" fill-opacity=".1"/><path fill="#FFA155" d="M24 12c-5.816 0-10.547 4.731-10.547 10.547v5.719c0 1.163.946 2.109 2.11 2.109h.824a2.113 2.113 0 0 0 1.988 1.406c1.163 0 2.11-.946 2.11-2.11v-5.718c0-1.163-.947-2.11-2.11-2.11-.917 0-1.698.589-1.988 1.407h-.825a2.1 2.1 0 0 0-.703.12v-.823c0-5.04 4.1-9.14 9.141-9.14 5.04 0 9.14 4.1 9.14 9.14v.824a2.1 2.1 0 0 0-.703-.121h-.824a2.113 2.113 0 0 0-1.988-1.406c-1.163 0-2.11.946-2.11 2.11v5.718a2.112 2.112 0 0 0 2.722 2.018 2.113 2.113 0 0 1-2.018 1.497h-2.23A2.113 2.113 0 0 0 24 31.782c-1.163 0-2.11.947-2.11 2.11 0 1.163.947 2.109 2.11 2.109.917 0 1.698-.588 1.988-1.406h2.23a3.52 3.52 0 0 0 3.516-3.516v-.703h.703c1.164 0 2.11-.946 2.11-2.11v-5.718C34.547 16.73 29.816 12 24 12Zm-6.328 11.953a.704.704 0 0 1 1.406 0v5.719a.704.704 0 0 1-1.406 0v-5.719Zm-2.11.703h.704v4.313h-.703a.704.704 0 0 1-.704-.703v-2.907c0-.387.316-.703.704-.703ZM24 34.594a.704.704 0 1 1 .002-1.408.704.704 0 0 1-.002 1.408Zm6.328-4.922a.704.704 0 0 1-1.406 0v-5.719a.704.704 0 0 1 1.406 0v5.719Zm2.813-1.406a.704.704 0 0 1-.703.703h-.704v-4.313h.703c.388 0 .704.316.704.703v2.907Z"/><path stroke="#454DFD" stroke-width="1.5" d="M20 18c2.154-2.357 5.23-2.694 8-.674"/></svg>