<svg xmlns="http://www.w3.org/2000/svg" width="17" height="14" fill="none"><path fill="#232536" d="M5.7 13.023c6.036 0 9.339-5.003 9.339-9.34 0-.14-.003-.284-.01-.424a6.665 6.665 0 0 0 1.637-1.7 6.472 6.472 0 0 1-1.884.516A3.3 3.3 0 0 0 16.226.26a6.599 6.599 0 0 1-2.084.796A3.287 3.287 0 0 0 8.546 4.05 9.323 9.323 0 0 1 1.782.622a3.286 3.286 0 0 0 1.015 4.38 3.287 3.287 0 0 1-1.487-.409v.04a3.281 3.281 0 0 0 2.634 3.22c-.483.132-.99.15-1.48.056a3.29 3.29 0 0 0 3.064 2.281 6.584 6.584 0 0 1-4.861 1.358A9.313 9.313 0 0 0 5.7 13.023Z"/></svg>